# xmcd
#
# Track frame offsets: 
#        200
#        22660
#        39822
#        51005
#        65025
#        77630
#        90607
#        98625
#        111522
#        125917
#        135950
#        152772
#        163687
#        183942
#        196252
#        226407
#        242322
#        257145
#        270117
#        281270
#        292457
#        303832
#        311995
#        322590
#        331350
#
# Disc length: 4604 seconds
#
# Revision: 2
# Processed by: cddbd v1.5.2PL0 Copyright (c) Steve Scherf et al.
# Submitted via: ExactAudioCopy v0.99pb5
#
DISCID=4b11fa19
DTITLE=Various Artist - Country Negro Jam Session: Butch Cage, Willie B. Thom
DTITLE=as, and Others
DYEAR=1959
DGENRE=Blues
TTITLE0=Butch Cage and Willie B. Thomas - 44 Blues
TTITLE1=Robert Pete Williams and Robert "Guitar J. Welch - Mississippi H
TTITLE1=eavy Water Blues
TTITLE2=Clarence Edwards, Cornelius Edwards and Butch Cage - Smokestack 
TTITLE2=Lighting
TTITLE3=Butch Cage and Willie B. Thomas - Who Broke the Lock
TTITLE4=Clarence Edwards, Cornelius Edwards and Butch Cage - You Don't L
TTITLE4=ove Me
TTITLE5=Butch Cage and Willie B. Thomas - It's the Sign of the Judgement
TTITLE6=Ben Douglas - Foxhunt
TTITLE7=Sally Dotson, Smoky Babe and Hillary Blunt - Your Dice Won't Pas
TTITLE7=s
TTITLE8=Willie B. Thomas and Butch Cage - Jelly Roll
TTITLE9=Rebecca Smith, Tom Miller and Ruth Miller - I've Got Religion
TTITLE10=Smoky Babe - Going Downtown Boogie
TTITLE11=Clarence Edwards, Cornelius Edwards and Butch Cage - Stack O'Do
TTITLE11=llars
TTITLE12=Willie B. Thomas, Butch Cage and Martha Thomas - Brown Skin Wom
TTITLE12=an
TTITLE13=Leon Strickland, Lucius Bridges and Leslie Anders - I Won't Be 
TTITLE13=Your Low-Down Dog No More
TTITLE14=Butch Cage and Willie B. Thomas - The Piano Blues
TTITLE15=Smoky Babe - Cotton Field Blues
TTITLE16=Otis Webster - The Farm Blues
TTITLE17=Otis Webster - The Boss Man Blues
TTITLE18=Cutch Cage and Willie B. Thomas - Whoa Mule!
TTITLE19=Otis Webster - Boll Weevil Blues
TTITLE20=Clarence Edwards, Cornelius Edwards and Butch Cage - Thousand M
TTITLE20=iles from Nowhere
TTITLE21=Butch Cage and Willie B. Thomas - Dead and Gone
TTITLE22=Butch Cage and Willie B. Thomas - Called for you Yesterday
TTITLE23=Butch Cage and Willie B. Thomas - Me and My Chauffeur
TTITLE24=Butch Cage and Willie B. Thomas - Baby Please Don't Go
EXTD=YEAR: 1959
EXTT0=
EXTT1=
EXTT2=
EXTT3=
EXTT4=
EXTT5=
EXTT6=
EXTT7=
EXTT8=
EXTT9=
EXTT10=
EXTT11=
EXTT12=
EXTT13=
EXTT14=
EXTT15=
EXTT16=
EXTT17=
EXTT18=
EXTT19=
EXTT20=
EXTT21=
EXTT22=
EXTT23=
EXTT24=
PLAYORDER=
